<?xml version="1.0" standalone="no"?>
<!DOCTYPE svg PUBLIC "-//W3C//DTD SVG 20010904//EN"
 "http://www.w3.org/TR/2001/REC-SVG-20010904/DTD/svg10.dtd">
<svg version="1.0" xmlns="http://www.w3.org/2000/svg"
 width="1024.000000pt" height="1024.000000pt" viewBox="0 0 1024.000000 1024.000000"
 preserveAspectRatio="xMidYMid meet">

<g transform="translate(0.000000,1024.000000) scale(0.100000,-0.100000)"
fill="#000000" stroke="none">
<path d="M0 5120 l0 -5120 5120 0 5120 0 0 5120 0 5120 -5120 0 -5120 0 0
-5120z m2796 1887 c121 -31 253 -76 314 -107 178 -90 389 -273 497 -430 105
-154 178 -327 220 -521 26 -120 26 -504 0 -634 -52 -257 -153 -473 -399 -850
-56 -86 -133 -188 -354 -468 -25 -32 -115 -149 -200 -260 -197 -257 -416 -537
-425 -543 -7 -4 -152 180 -425 542 -120 158 -215 283 -340 444 -128 166 -178
237 -276 395 -259 416 -349 693 -349 1070 -1 249 42 443 143 652 162 335 487
596 863 695 150 39 230 47 435 44 169 -3 208 -7 296 -29z m4510 -997 c49 -31
88 -102 88 -161 0 -124 -146 -206 -271 -154 -48 20 -71 41 -94 87 -50 98 6
221 114 249 48 12 124 2 163 -21z m-2682 4 c4 -9 6 -186 6 -393 0 -207 0 -380
0 -384 0 -5 20 18 45 51 55 74 145 136 219 153 30 6 94 10 147 7 111 -5 183
-33 243 -94 94 -97 106 -159 106 -576 0 -180 4 -338 9 -351 10 -26 55 -47 103
-47 28 0 29 -2 26 -42 l-3 -43 -285 0 -285 0 0 40 c0 35 3 40 25 43 128 13
122 -6 118 415 l-3 342 -30 60 c-40 81 -90 108 -185 102 -73 -5 -113 -22 -171
-74 -80 -72 -79 -68 -79 -457 l0 -346 24 -16 c14 -8 46 -19 73 -22 l48 -7 0
-40 0 -40 -285 0 -285 0 0 40 0 40 55 7 c34 4 59 13 67 24 10 14 13 156 13
695 0 373 -3 685 -6 694 -8 20 -55 44 -114 60 -43 11 -45 13 -42 46 4 54 26
79 70 80 20 0 93 11 162 23 157 30 206 32 214 10z m2724 -904 c4 -406 -11
-799 -34 -934 -53 -311 -173 -417 -456 -404 -142 7 -210 42 -227 120 -17 75
29 138 100 138 55 0 64 -6 119 -76 61 -77 91 -84 136 -31 70 84 75 133 74 764
0 293 -3 539 -6 547 -11 28 -54 47 -120 53 l-66 6 5 45 c6 53 17 62 77 62 66
1 247 35 310 58 30 11 62 20 70 19 13 -2 15 -52 18 -367z m-959 314 c91 -20
155 -58 238 -140 57 -55 81 -89 109 -148 47 -103 67 -208 60 -316 -11 -172
-57 -281 -158 -382 -116 -116 -260 -172 -443 -172 -152 0 -231 23 -340 100
-178 124 -255 291 -242 523 8 156 70 287 186 394 71 65 126 98 211 127 122 41
240 45 379 14z m1928 0 c86 -22 151 -62 228 -139 115 -115 165 -239 165 -413
0 -237 -75 -398 -238 -506 -106 -70 -203 -99 -342 -100 -68 -1 -138 5 -170 13
-94 23 -188 79 -271 161 -121 119 -160 219 -161 413 -1 99 3 121 27 187 75
203 253 355 461 394 90 17 212 13 301 -10z"/>
<path d="M1722 6483 c-120 -217 -210 -399 -217 -440 -17 -102 59 -226 168
-274 40 -17 71 -22 134 -23 71 0 89 4 138 30 69 35 105 82 143 185 16 41 34
74 41 74 8 0 26 -36 44 -85 24 -68 40 -94 78 -131 60 -58 145 -85 239 -76 132
14 202 73 251 209 22 60 37 88 46 86 8 -2 28 -39 46 -83 41 -101 67 -139 120
-169 147 -85 337 -36 428 111 19 31 24 52 24 108 0 62 -5 80 -42 155 -64 130
-206 395 -222 414 -12 14 -76 16 -686 16 l-673 0 -60 -107z"/>
<path d="M1623 5613 c-4 -10 -7 -295 -8 -634 0 -593 1 -618 19 -638 l19 -21
788 0 c461 0 798 4 812 9 14 6 29 23 36 42 15 43 16 1212 1 1240 -10 19 -30
19 -836 19 -776 0 -825 -1 -831 -17z m812 -192 c0 -22 -7 -26 -68 -41 -38 -10
-73 -23 -78 -31 -5 -8 -9 -92 -9 -186 l0 -173 40 0 c38 0 50 9 188 134 164
148 204 191 200 215 -3 14 -14 19 -88 40 -27 7 -35 28 -20 51 7 12 43 16 195
18 177 3 185 2 185 -16 0 -13 -19 -29 -62 -52 -61 -32 -408 -331 -408 -351 0
-12 291 -372 354 -437 28 -29 84 -71 124 -94 51 -28 72 -45 70 -56 -3 -15 -26
-17 -213 -17 l-210 0 3 47 c3 47 2 50 -143 243 -140 188 -146 195 -180 195
l-35 0 0 -177 c0 -98 4 -184 9 -191 5 -8 37 -24 71 -36 66 -22 87 -42 77 -70
-6 -15 -30 -16 -239 -14 -225 3 -233 4 -233 23 0 13 13 26 40 38 81 38 75 1
75 458 l0 409 -22 14 c-13 8 -35 18 -50 21 -33 8 -52 30 -44 50 5 13 37 15
238 13 l233 -3 0 -24z"/>
<path d="M2360 3326 c0 -2 7 -9 15 -16 13 -11 14 -10 9 4 -5 14 -24 23 -24 12z"/>
<path d="M6105 5333 c-80 -42 -138 -137 -157 -261 -6 -39 -8 -143 -5 -247 4
-145 9 -193 26 -245 39 -124 108 -198 206 -220 120 -27 227 45 275 186 58 167
47 494 -20 637 -29 61 -84 124 -131 147 -48 25 -150 26 -194 3z"/>
<path d="M8030 5339 c-36 -15 -98 -78 -121 -121 -38 -75 -52 -164 -52 -338 0
-180 11 -263 48 -346 47 -107 100 -155 194 -175 144 -31 260 85 292 291 18
117 7 388 -20 470 -25 80 -73 150 -132 193 -38 28 -52 32 -114 34 -38 2 -81
-2 -95 -8z"/>
</g>
</svg>
